<?xml version="1.0" encoding="utf-8"?>
<!-- Generator: Adobe Illustrator 22.0.1, SVG Export Plug-In . SVG Version: 6.00 Build 0)  -->
<svg version="1.1" id="Layer_1" xmlns="http://www.w3.org/2000/svg" xmlns:xlink="http://www.w3.org/1999/xlink" x="0px" y="0px"
	 viewBox="0 0 600 500" style="enable-background:new 0 0 600 500;" xml:space="preserve">
<style type="text/css">
	.st0{opacity:0.3;}
	.st1{fill:#D2E4FF;}
	.st2{fill:#BDD6FF;}
	.st3{opacity:0.1;}
	.st4{fill:#FFFFFF;}
	.st5{fill:#6193F6;}
	.st6{fill:#F2CB2A;}
	.st7{fill:#FE6021;}
	.st8{fill:#060405;}
	.st9{fill:#FF7545;}
	.st10{fill:#EFC102;}
	.st11{fill:#C6E2FA;}
	.st12{opacity:5.000000e-02;}
	.st13{fill:#B580D8;}
	.st14{opacity:8.000000e-02;}
	.st15{fill:#0461FD;}
	.st16{opacity:0.15;}
	.st17{fill:#00F2FE;}
	.st18{opacity:0.25;}
	.st19{fill:#FCC922;}
	.st20{opacity:0.2;}
	.st21{fill:#262626;}
	.st22{fill:#4379D1;}
	.st23{fill-rule:evenodd;clip-rule:evenodd;fill:#D2E4FF;}
	.st24{fill-rule:evenodd;clip-rule:evenodd;fill:#6193F6;}
	.st25{fill-rule:evenodd;clip-rule:evenodd;fill:#FF7545;}
	.st26{fill:#487FD8;}
	.st27{fill:#FFD964;}
	.st28{fill:#262040;}
	.st29{fill:#FEFEFE;}
	.st30{fill:#B3CEF4;}
	.st31{fill:#F3F6FD;}
	.st32{opacity:0.4;}
	.st33{fill:#181659;}
	.st34{fill:#4E85DD;}
	.st35{fill:#FDFDFF;}
	.st36{fill:#EDEBFF;}
	.st37{fill:#EAF4FE;}
	.st38{opacity:0.6;}
	.st39{fill:#437EDD;}
	.st40{fill:#9F70C4;}
	.st41{fill:#417BD8;}
	.st42{fill:#417AD6;}
	.st43{opacity:0.8;}
	.st44{fill:#5088E2;}
	.st45{fill:none;}
	.st46{clip-path:url(#SVGID_2_);fill:#EFF5FF;}
	.st47{clip-path:url(#SVGID_2_);fill:#EEF5FF;}
	.st48{clip-path:url(#SVGID_2_);fill:#EDF4FF;}
	.st49{clip-path:url(#SVGID_2_);fill:#ECF3FF;}
	.st50{clip-path:url(#SVGID_2_);fill:#EBF3FF;}
	.st51{clip-path:url(#SVGID_2_);fill:#EAF2FF;}
	.st52{clip-path:url(#SVGID_2_);fill:#E8F1FF;}
	.st53{clip-path:url(#SVGID_2_);fill:#E7F1FF;}
	.st54{clip-path:url(#SVGID_2_);fill:#E6F0FF;}
	.st55{clip-path:url(#SVGID_4_);fill:#E1EDFF;}
	.st56{clip-path:url(#SVGID_4_);fill:#E0EDFF;}
	.st57{clip-path:url(#SVGID_4_);fill:#DFECFF;}
	.st58{clip-path:url(#SVGID_4_);fill:#DEEBFF;}
	.st59{clip-path:url(#SVGID_4_);fill:#DDEBFF;}
	.st60{clip-path:url(#SVGID_4_);fill:#DCEAFF;}
	.st61{clip-path:url(#SVGID_4_);fill:#DBEAFF;}
	.st62{clip-path:url(#SVGID_4_);fill:#DAE9FF;}
	.st63{clip-path:url(#SVGID_4_);fill:#D9E8FF;}
	.st64{clip-path:url(#SVGID_6_);fill:#D4E5FF;}
	.st65{clip-path:url(#SVGID_6_);fill:#D3E5FF;}
	.st66{clip-path:url(#SVGID_6_);fill:#D2E4FF;}
	.st67{clip-path:url(#SVGID_8_);fill:#D2E4FF;}
	.st68{clip-path:url(#SVGID_10_);fill:#D2E4FF;}
	.st69{opacity:6.000000e-02;}
	.st70{fill:#BBCAEA;}
	.st71{fill:#D1DCF8;}
</style>
<g id="Manage_Workflow">
	<g>
		<g>
			<g>
				<g>
					<g class="st0">
						<g>
							<path class="st1" d="M555.8,438c0.6-11.9-0.2-23.9-2.4-35.6c-4-21-15.2-43.5-34.5-47.5c-8.6-1.8-17.4,0.5-26.2,1.2
								s-18.5-0.8-24.3-8c-9.2-11.7-2.5-29.6,4.6-43c14.1-26.8,28.2-53.7,42.3-80.5c9.8-18.6,48.9-75.7,37.7-93.4
								c-51.1-80.2-181.7-70.8-205.3-70C7.3,73,180.4,159.2,59,288.4c-9.7,10.3,9.2,28.1,8.1,42.6c-1.4,17.4-13,31.6-18.9,47.9
								C41.4,398,43,420.4,52.5,438H555.8z"/>
						</g>
					</g>
				</g>
				<g>
					<path d="M422.4,272.6h-2.8v-1h1.8v-2.2h1V272.6z M414.5,272.6h-5v-1h5V272.6z M404.5,272.6h-5v-1h5V272.6z M394.5,272.6h-5v-1
						h5V272.6z M384.5,272.6h-5v-1h5V272.6z M374.5,272.6h-5v-1h5V272.6z M364.5,272.6h-5v-1h5V272.6z M354.5,272.6h-5v-1h5V272.6z
						 M344.5,272.6h-5v-1h5V272.6z M334.5,272.6h-5v-1h5V272.6z M324.5,272.6h-5v-1h5V272.6z M314.5,272.6h-5v-1h5V272.6z
						 M304.5,272.6h-5v-1h5V272.6z M294.5,272.6h-5v-1h5V272.6z M284.5,272.6h-5v-1h5V272.6z M274.5,272.6h-5v-1h5V272.6z
						 M264.5,272.6h-5v-1h5V272.6z M254.5,272.6h-5v-1h5V272.6z M244.5,272.6h-5v-1h5V272.6z M234.5,272.6h-5v-1h5V272.6z
						 M224.5,272.6h-5v-1h5V272.6z M214.5,272.6h-5v-1h5V272.6z M204.5,272.6h-5v-1h5V272.6z M194.5,272.6h-5v-1h5V272.6z
						 M184.5,272.6h-5v-1h5V272.6z M174.5,272.6h-5v-1h5V272.6z M166.2,271h-1v-5h1V271z M422.4,264.5h-1v-5h1V264.5z M166.2,261h-1
						v-5h1V261z M422.4,254.5h-1v-5h1V254.5z M166.2,251h-1v-5h1V251z M422.4,244.5h-1v-5h1V244.5z M166.2,241h-1v-5h1V241z
						 M422.4,234.5h-1v-5h1V234.5z M166.2,231h-1v-5h1V231z M422.4,224.5h-1v-5h1V224.5z M166.2,221h-1v-5h1V221z M422.4,214.5h-1
						v-5h1V214.5z M166.2,211h-1v-5h1V211z M422.4,204.5h-1v-5h1V204.5z M166.2,201h-1v-5h1V201z M422.4,194.5h-1v-5h1V194.5z
						 M166.2,191h-1v-5h1V191z M422.4,184.5h-1v-5h1V184.5z M166.2,181h-1v-5h1V181z M422.4,174.5h-1v-5h1V174.5z M166.2,171h-1v-5
						h1V171z M422.4,164.5h-1v-5.2h0.8v0.5h0.2V164.5z M166.2,161h-1v-5h1V161z M472.2,160.3h-5v-1h5V160.3z M462.2,160.3h-5v-1h5
						V160.3z M452.2,160.3h-5v-1h5V160.3z M442.2,160.3h-5v-1h5V160.3z M432.2,160.3h-5v-1h5V160.3z M476,158h-1v-5h1V158z
						 M166.2,151h-1v-5h1V151z M476,148h-1v-5h1V148z M166.2,141h-1v-5h1V141z M476,138h-1v-5h1V138z M166.2,131h-1v-5h1V131z
						 M476,128h-1v-5h1V128z M166.2,121h-1v-5h1V121z M332,112.8h-5v-1h5V112.8z M322,112.8h-5v-1h5V112.8z M312,112.8h-5v-1h5
						V112.8z M302,112.8h-5v-1h5V112.8z M292,112.8h-5v-1h5V112.8z M282,112.8h-5v-1h5V112.8z M272,112.8h-5v-1h5V112.8z M262,112.8
						h-5v-1h5V112.8z M252,112.8h-5v-1h5V112.8z M242,112.8h-5v-1h5V112.8z M232,112.8h-5v-1h5V112.8z M222,112.8h-5v-1h5V112.8z
						 M212,112.8h-5v-1h5V112.8z M202,112.8h-5v-1h5V112.8z M192,112.8h-5v-1h5V112.8z M182,112.8h-5v-1h5V112.8z M172,112.8h-5v-1
						h5V112.8z"/>
				</g>
				<g>
					<path class="st2" d="M259.8,91.1v52.3c0,3.6-2.9,6.5-6.5,6.5h-123c-3.6,0-6.5-2.9-6.5-6.5V91.1c0-3.6,2.9-6.5,6.5-6.5h123
						C256.9,84.6,259.8,87.5,259.8,91.1z"/>
				</g>
				<g>
					<g>
						<rect x="188.5" y="97.3" class="st4" width="52.4" height="8.1"/>
					</g>
					<g>
						<rect x="189.6" y="112.7" class="st4" width="62.9" height="2.4"/>
					</g>
					<g>
						<rect x="189.6" y="119.5" class="st4" width="62.9" height="2.4"/>
					</g>
					<g>
						<rect x="189.6" y="126.4" class="st4" width="23.5" height="2.4"/>
					</g>
				</g>
				<g class="st3">
					<path d="M259.8,120.7v22.7c0,3.6-2.9,6.5-6.5,6.5h-65v-22.2c0-3.9,3.1-7,7-7H259.8z"/>
				</g>
				<g>
					<path class="st4" d="M377.3,133.6v172.9c0,3.7-2.9,6.7-6.6,6.7h-171c-3.7,0-6.6-3-6.6-6.7V133.6c0-3.7,3-6.6,6.6-6.6h171
						C374.4,127,377.3,129.9,377.3,133.6z"/>
				</g>
				<g>
					<g>
						<g>
							<path class="st5" d="M316.9,188.6c0-1.4-1.1-2.6-2.5-2.8l-2.8-0.6c-0.9-0.2-1.8-0.8-2.2-1.7c-0.1-0.3-0.3-0.6-0.4-0.9
								c-0.4-0.9-0.4-1.9,0.1-2.8l1.4-2.4c0.7-1.2,0.5-2.8-0.5-3.7l-6.3-5.9c-1-1-2.6-1.1-3.7-0.3l-2.3,1.6
								c-0.8,0.5-1.9,0.7-2.8,0.3c-0.3-0.1-0.7-0.3-1-0.4c-0.9-0.3-1.6-1.1-1.9-2l-0.7-2.7c-0.4-1.4-1.6-2.3-3-2.2l-8.6,0.3
								c-1.4,0-2.6,1-2.8,2.4l-0.5,2.8c-0.2,0.9-0.8,1.8-1.7,2.2c-0.3,0.1-0.6,0.3-1,0.4c-0.9,0.4-1.9,0.4-2.8-0.1l-2.4-1.4
								c-1.2-0.7-2.8-0.5-3.7,0.6l-5.9,6.3c-0.9,1-1.1,2.6-0.3,3.7l1.6,2.3c0.6,0.8,0.7,1.8,0.3,2.7c-0.1,0.3-0.3,0.7-0.4,1
								c-0.3,0.9-1.1,1.6-2,1.9l-2.7,0.7c-1.4,0.3-2.3,1.6-2.2,3l0.3,8.6c0,1.4,1,2.6,2.4,2.9l2.7,0.5c1,0.2,1.8,0.8,2.2,1.7
								c0.1,0.3,0.3,0.6,0.4,1c0.4,0.9,0.4,1.9-0.1,2.8l-1.4,2.4c-0.7,1.2-0.5,2.8,0.6,3.7l6.3,5.9c1,1,2.6,1.1,3.8,0.3l2.3-1.6
								c0.8-0.5,1.8-0.7,2.7-0.3c0.3,0.1,0.7,0.3,1,0.4c0.9,0.3,1.6,1.1,1.9,2l0.7,2.7c0.3,1.4,1.6,2.3,3,2.2l8.6-0.3
								c1.4-0.1,2.6-1.1,2.8-2.5l0.5-2.7c0.2-0.9,0.8-1.8,1.7-2.2c0.3-0.1,0.7-0.3,1-0.4c0.9-0.4,1.9-0.4,2.8,0.1l2.4,1.4
								c1.2,0.7,2.8,0.4,3.7-0.6l5.9-6.3c1-1,1.1-2.6,0.3-3.8l-1.6-2.3c-0.6-0.8-0.7-1.8-0.3-2.7c0.1-0.3,0.3-0.7,0.3-1
								c0.3-0.9,1.1-1.6,2.1-1.9l2.7-0.7c1.3-0.4,2.3-1.6,2.2-3L316.9,188.6z"/>
						</g>
					</g>
					<g>
						<path class="st4" d="M285.2,208.8c-8.2,0-14.8-6.6-14.8-14.8c0-8.2,6.6-14.8,14.8-14.8c8.2,0,14.8,6.6,14.8,14.8
							C300,202.2,293.4,208.8,285.2,208.8z"/>
					</g>
				</g>
				<g>
					<path class="st8" d="M377.3,133.6v11.3H193.1v-11.3c0-3.7,3-6.6,6.6-6.6h171C374.4,127,377.3,129.9,377.3,133.6z"/>
				</g>
				<g>
					<circle class="st4" cx="205.7" cy="135.9" r="2.7"/>
				</g>
				<g>
					<circle class="st4" cx="215.8" cy="135.9" r="2.7"/>
				</g>
				<g>
					<circle class="st4" cx="225.9" cy="135.9" r="2.7"/>
				</g>
				<g>
					<g class="st3">
						<path d="M377.3,133.6v43.8h-57.9c-1.5,0-2.7-1.2-2.7-2.7V127h54C374.4,127,377.3,129.9,377.3,133.6z"/>
					</g>
					<g>
						<path class="st2" d="M445.2,174.1H323.4c-1.5,0-2.7-1.2-2.7-2.7v-66.9c0-1.5,1.2-2.7,2.7-2.7h121.9c1.5,0,2.7,1.2,2.7,2.7
							v66.9C448,172.8,446.7,174.1,445.2,174.1z"/>
					</g>
					<g>
						<g>
							<rect x="327.7" y="110.5" class="st4" width="8.2" height="3.6"/>
						</g>
						<g>
							<rect x="327.7" y="120.7" class="st4" width="8.2" height="3.6"/>
						</g>
						<g>
							<rect x="327.7" y="130.9" class="st4" width="8.2" height="3.6"/>
						</g>
						<g>
							<rect x="327.7" y="141.1" class="st4" width="8.2" height="3.6"/>
						</g>
						<g>
							<rect x="327.7" y="151.4" class="st4" width="8.2" height="3.6"/>
						</g>
						<g>
							<rect x="327.7" y="161.6" class="st4" width="8.2" height="3.6"/>
						</g>
					</g>
					<g>
						<g>
							<path class="st6" d="M364.7,130.4l14.5,14.5c-3.9,3.7-9.1,6-14.9,6c-11.5,0-21-9.1-21.4-20.5H364.7z"/>
						</g>
						<g>
							<path class="st4" d="M385.8,129.5c0,5.8-2.3,11-6,14.9l-14.5-14.5v-21.8C376.7,108.5,385.8,117.9,385.8,129.5z"/>
						</g>
					</g>
					<g>
						<g>
							<path class="st9" d="M364.4,108v21.5h-21.5C342.9,117.6,352.5,108,364.4,108z"/>
						</g>
					</g>
					<g>
						<rect x="391.8" y="117.8" class="st4" width="45.3" height="2.7"/>
					</g>
					<g>
						<rect x="391.8" y="126.2" class="st4" width="45.3" height="2.7"/>
					</g>
					<g>
						<rect x="391.8" y="134.6" class="st4" width="26.1" height="2.7"/>
					</g>
					<g>
						<rect x="425.6" y="134.6" class="st4" width="11.5" height="2.7"/>
					</g>
					<g>
						<rect x="391.8" y="143.1" class="st4" width="19.2" height="2.7"/>
					</g>
				</g>
				<g class="st3">
					<path d="M491.5,87.3v34.5c0,1.8-1.4,3.2-3.2,3.2h-82.2c-1.8,0-3.2-1.4-3.2-3.2V87.3c0-1.8,1.4-3.2,3.2-3.2h82.2
						C490.1,84.1,491.5,85.5,491.5,87.3z"/>
				</g>
				<g>
					<path class="st4" d="M493.4,85.3v34.5c0,1.8-1.4,3.2-3.2,3.2H408c-1.8,0-3.2-1.4-3.2-3.2V85.3c0-1.8,1.4-3.2,3.2-3.2h82.2
						C492,82.1,493.4,83.6,493.4,85.3z"/>
				</g>
				<g>
					<path class="st8" d="M493.4,85.3v5.4h-88.6v-5.4c0-1.8,1.4-3.2,3.2-3.2h82.2C492,82.1,493.4,83.6,493.4,85.3z"/>
				</g>
				<g>
					<circle class="st4" cx="410.9" cy="86.4" r="1.3"/>
				</g>
				<g>
					<circle class="st4" cx="415.7" cy="86.4" r="1.3"/>
				</g>
				<g>
					<circle class="st4" cx="420.6" cy="86.4" r="1.3"/>
				</g>
				<g>
					<path class="st2" d="M430.4,106.5c0,4.9-4,8.9-8.9,8.9c-4.9,0-8.9-4-8.9-8.9s4-8.9,8.9-8.9C426.4,97.5,430.4,101.5,430.4,106.5
						z"/>
				</g>
				<g>
					<rect x="438.3" y="98.4" class="st2" width="17.1" height="3.2"/>
				</g>
				<g>
					<rect x="438.3" y="105.2" class="st2" width="51.4" height="1.3"/>
				</g>
				<g>
					<rect x="438.3" y="108.7" class="st2" width="19" height="1.3"/>
				</g>
				<g>
					<rect x="462.8" y="108.7" class="st2" width="3.1" height="1.3"/>
				</g>
				<g>
					<g>
						<path class="st4" d="M485.5,230.9c0,0-26.6,17-36,14.7c-15.6-3.8-41.5-48.9-41.5-48.9s-10.1-3.6-10.4-6.7
							c-0.2-2.4,7-6.7,7-6.7s-10.6-10.7-7.3-13.1c3.4-2.4,14.2,11.7,14.2,11.7s-0.7-4.4,2.8-5.8c3.4-1.4,1.5,11.2,1.5,11.2
							l33.2,30.6l18.2-6.9L485.5,230.9z"/>
						<path class="st8" d="M451.4,246.3c-0.8,0-1.5-0.1-2.1-0.2c-15.3-3.7-39.7-45.6-41.7-49c-1.6-0.6-10.2-3.9-10.5-7.1
							c-0.2-2.3,4.7-5.6,6.7-6.8c-1.8-1.9-7.9-8.5-7.6-11.8c0.1-0.7,0.3-1.2,0.9-1.5c3.2-2.2,10.9,6.8,14,10.6
							c0.1-1.7,0.9-3.9,3.1-4.8c0.7-0.3,1.3-0.1,1.6,0.2c1.9,1.5,0.9,9.2,0.6,11.3l32.8,30.2l18.3-6.9l19,20.6l-0.5,0.3
							C484.7,232,462.2,246.3,451.4,246.3z M398.3,170.4c-0.3,0-0.5,0.1-0.7,0.2c-0.3,0.2-0.4,0.4-0.4,0.8
							c-0.2,2.8,5.5,9.2,7.8,11.5l0.5,0.5l-0.6,0.3c-2.7,1.6-6.9,4.7-6.7,6.2c0.2,2,6.3,4.9,10.1,6.3l0.2,0.1l0.1,0.2
							c0.3,0.4,26,45,41.2,48.7c8.4,2.1,31.4-12,35.1-14.3L467,211.6l-18.2,6.9l-33.6-31l0-0.3c0.6-3.6,1-9.6-0.2-10.6
							c-0.1-0.1-0.2-0.1-0.6,0c-3,1.2-2.5,5.1-2.4,5.3l0.3,1.9l-1.2-1.5C407.4,177.4,401,170.4,398.3,170.4z"/>
					</g>
					<g>
						<g>
							<g>
								<polygon class="st8" points="476,286.7 475.5,423.2 492.2,423.2 508,330.9 521.9,423.2 538.7,423.2 540,284.8 								"/>
							</g>
							<g>
								<g>
									<path class="st5" d="M475.4,426.2v-3h16.8c0.2,5.4,0.7,15.8,0.8,15.8h-27.3C464.7,430.1,475.4,426.2,475.4,426.2z"/>
								</g>
								<g>
									<path class="st8" d="M466,435.1c-0.4,1.2-0.5,2.5-0.4,3.9H493c-0.1,0-0.1-1.6-0.3-3.9H466z"/>
								</g>
							</g>
							<g>
								<g>
									<path class="st5" d="M521.9,426.2v-3h16.8c0.2,5.4,0.7,15.8,0.8,15.8h-27.3C511.2,430.1,521.9,426.2,521.9,426.2z"/>
								</g>
								<g>
									<path class="st8" d="M512.5,435.1c-0.4,1.2-0.5,2.5-0.4,3.9h27.3c-0.1,0-0.1-1.6-0.3-3.9H512.5z"/>
								</g>
							</g>
						</g>
						<g>
							<g>
								<g>
									<path class="st4" d="M523.2,256.8c0,0,3.4,13.3,3.7,13.6c0.4,0.2,22.5,4.8,24.7-1.6c1.4-4-0.1-31.2-0.1-31.2l-1.6-0.6
										c0,0-20-2-20.5-2.2C528.9,234.4,523.2,256.8,523.2,256.8z"/>
								</g>
								<g>
									<path class="st8" d="M541.7,272.6c-6.8,0-14.5-1.5-15-1.9c-0.2-0.1-0.5-0.4-3.9-13.9l0-0.1l0-0.1
										c5.7-22.1,6.2-22.4,6.5-22.5l0.2-0.1l0.2,0.1c0.7,0.2,12.6,1.4,20.4,2.2l0.1,0l1.9,0.7l0,0.3c0.1,1.1,1.5,27.4,0.1,31.4
										c-0.4,1.3-1.6,2.2-3.4,2.8C546.9,272.4,544.4,272.6,541.7,272.6z M527.3,270c1.3,0.3,16.2,3.3,22,0.5
										c1-0.5,1.7-1.1,1.9-1.9c1.3-3.6,0.1-27.7-0.1-30.7l-1.2-0.5c-6.8-0.7-17.8-1.8-20.2-2.2c-0.8,1.9-4,14-5.9,21.6
										C524.9,261.4,526.8,268.8,527.3,270z"/>
								</g>
							</g>
							<g>
								<path class="st13" d="M538,203.7c5.9,3.7,15.3,20.1,17.3,40.5c-6,3.6-13.7,4.2-22.2,3.1L538,203.7z"/>
							</g>
							<g>
								<g>
									<path class="st4" d="M499.4,198c0,0,5.4-11.8,4.5-18.1c-0.9-6.3,13.9-13.8,13.9-13.8s2.2,35.6,4.1,37.5
										c1.9,2-8.3,5.5-8.3,5.5L499.4,198z"/>
								</g>
								<g>
									<path class="st8" d="M513.6,209.7l-14.7-11.5l0.2-0.4c0.1-0.1,5.3-11.7,4.5-17.8c-0.9-6.6,13.6-14,14.2-14.3l0.7-0.3l0,0.8
										c0.9,13.7,2.7,35.8,4,37.2c0.3,0.3,0.4,0.7,0.3,1.2c-0.5,2.2-7.5,4.7-8.9,5.2L513.6,209.7z M500,197.8l13.7,10.7
										c3.2-1.2,7.7-3.2,8-4.4c0-0.1,0-0.1-0.1-0.2c-1.8-1.9-3.7-29.6-4.2-37c-2.8,1.5-13.7,7.8-13,12.9
										C505.2,185.7,501,195.8,500,197.8z"/>
								</g>
							</g>
							<g>
								<path class="st13" d="M473.5,301.3c1.7-20,5.5-96.5,5.5-96.5c6.3-8.3,48.2-11.7,59-1.1c6.6,6.5,3.4,97.6,3.4,97.6
									C541.4,306.9,473.5,306.9,473.5,301.3z"/>
							</g>
							<g>
								<path class="st13" d="M484.7,201.1c0,0,10.9,16.2,10.9,27.3c0,7.7-24.2,14.8-24.2,14.8c-7.3-2-14-26.9-11.8-32.1
									C459.6,211.1,471.2,205.7,484.7,201.1z"/>
							</g>
							<g>
								<g>
									<path class="st4" d="M496.2,169.7c-0.9,8.2-2,13.2,1.2,14.6c11.6,4.8,22.7-10,22.7-10l5.8-17.6c0,0-2.4-14.1-14.2-17.8
										c-7.4-2.4-12.1,11.4-14.9,23.5c-0.8,0.8-2.5,2.9-2.9,4C493.3,167.8,495.4,168.1,496.2,169.7z"/>
								</g>
								<g>
									<path class="st8" d="M502.2,185.7c-1.6,0-3.3-0.3-4.9-1c-3.2-1.3-2.6-5.7-1.9-12.3c0.1-0.8,0.2-1.7,0.3-2.7
										c-0.3-0.5-0.7-0.8-1.1-1.1c-0.7-0.6-1.6-1.3-1.1-2.6c0.4-1.1,2-3.2,2.9-4c3-13,6.6-20.8,10.8-23.2c1.5-0.9,3.1-1,4.7-0.5
										c11.9,3.8,14.5,18.1,14.6,18.2l0,0.1l-5.9,17.9C520.4,174.7,512,185.7,502.2,185.7z M507.6,139.7
										c-3.9,2.2-7.5,10.1-10.3,22.7l0,0.1l-0.1,0.1c-0.7,0.7-2.4,2.8-2.8,3.8c-0.2,0.6,0,0.8,0.8,1.4c0.5,0.4,1.1,0.9,1.5,1.6
										l0.1,0.1l0,0.1c-0.1,1-0.2,1.9-0.3,2.8c-0.8,6.4-1.2,10.2,1.2,11.2c10.8,4.4,21.2-8.7,22-9.8l5.7-17.4
										c-0.3-1.4-3.1-13.9-13.8-17.3C510.2,138.8,508.9,138.9,507.6,139.7z"/>
								</g>
							</g>
							<g>
								<g>
									<path class="st8" d="M489.7,237c-5.9-15.9,23.8-51.8,22.7-63.7s-17.3-29-12.4-34.6c4.9-5.7,26.7-8.1,36,0.9
										c9.3,9,4.8,38.1,8.4,54.7c4.9,22.6,3.2,42-6.2,51.4S494,248.5,489.7,237z"/>
								</g>
							</g>
						</g>
						<g>
							<path class="st8" d="M500.7,159.6c-0.2,1.1,0.2,2,0.8,2.1c0.6,0.1,1.3-0.6,1.5-1.7c0.2-1.1-0.2-2-0.8-2.2
								C501.6,157.8,500.9,158.5,500.7,159.6z"/>
						</g>
						<g>
							<path class="st8" d="M498.5,175.2c-0.2-0.1-0.3-0.4-0.2-0.7c0.1-0.2,0.4-0.3,0.7-0.2c0.9,0.5,2.1,0.5,3.1,0
								c0.2-0.1,0.5,0,0.7,0.2c0.1,0.2,0,0.5-0.2,0.7C501.3,175.9,499.7,175.9,498.5,175.2z"/>
						</g>
					</g>
				</g>
				<g>
					<g>
						<g>
							<g>
								<g>
									<g>
										<g>
											<g>
												<g>
													<g>
														<path class="st8" d="M82.7,425.7l17.8-103.5l15.1,103.5h13.7l5.1-136.9H66.9c-2.3,5,0,116.3,2.1,137.1L82.7,425.7z"/>
													</g>
													<g>
														<g>
															<path class="st4" d="M47.4,275.5c-7.6-8.2,2.4-43.9,2.4-43.9l19.5,15.7l-1.8,9.4"/>
														</g>
														<g>
															<path class="st8" d="M47.4,276c-0.1,0-0.3-0.1-0.4-0.2c-7.7-8.3,1.9-42.9,2.3-44.4c0-0.2,0.2-0.3,0.3-0.3
																c0.2-0.1,0.3,0,0.5,0.1l19.5,15.7c0.1,0.1,0.2,0.3,0.2,0.5l-1.8,9.4c-0.1,0.3-0.3,0.4-0.6,0.4
																c-0.3-0.1-0.4-0.3-0.4-0.6l1.8-9.1l-18.7-15.1c-1.4,5.1-9.1,35.5-2.3,42.7c0.2,0.2,0.2,0.5,0,0.7
																C47.6,276,47.5,276,47.4,276z"/>
														</g>
													</g>
													<g>
														<g>
															<path class="st4" d="M191,217l-5.2,3.4c0,0-19.3,39.1-34.4,40.2c-10.2,0.7-31.4-25.9-31.4-25.9l16.3-18.2l17.5,16.6
																l24.3-21.9c0,0-1.3-6.4,1.6-7.4c2.8-1,3,3,3,3l10.3-11.6c1-1.1,2.7-0.9,3.5,0.3l0,0c0.5,0.9,0.4,2-0.4,2.7l-7,6.5
																l3.4,5.7C193.8,212.6,193.2,215.5,191,217z"/>
														</g>
														<g>
															<path class="st8" d="M150.9,261.1c-10.4,0-30.5-25-31.4-26.1c-0.2-0.2-0.1-0.5,0-0.6l16.3-18.2
																c0.1-0.1,0.2-0.2,0.4-0.2c0.1,0,0.3,0,0.4,0.1l17.2,16.3l23.8-21.4c-0.2-1.3-0.9-6.7,1.9-7.7
																c0.9-0.3,1.6-0.3,2.2,0.2c0.7,0.5,1.1,1.4,1.3,2.2l9.6-10.8c0.6-0.6,1.4-1,2.2-0.9c0.8,0.1,1.6,0.5,2,1.3
																c0.7,1.1,0.5,2.5-0.4,3.3l-6.7,6.2l3.2,5.3c1.5,2.5,0.8,5.6-1.6,7.2l-5.1,3.4c-1.4,2.8-19.8,39.3-34.8,40.3
																C151.2,261.1,151.1,261.1,150.9,261.1z M120.6,234.7c2.4,3,21,25.4,30.3,25.4c0.1,0,0.3,0,0.4,0
																c14.7-1,33.8-39.5,34-39.9c0-0.1,0.1-0.1,0.2-0.2l5.2-3.4l0,0c2-1.3,2.5-3.9,1.3-5.9l-3.4-5.7
																c-0.1-0.2-0.1-0.5,0.1-0.6l7-6.5c0.6-0.5,0.7-1.4,0.3-2.1c-0.3-0.5-0.7-0.7-1.3-0.8c-0.5,0-1,0.2-1.4,0.6L183,207.2
																c-0.1,0.2-0.3,0.2-0.5,0.1c-0.2-0.1-0.3-0.2-0.3-0.5c0-0.5-0.2-2-1-2.5c-0.3-0.2-0.8-0.2-1.3,0
																c-2,0.7-1.6,5.2-1.2,6.8c0,0.2,0,0.4-0.2,0.5l-24.3,21.9c-0.2,0.2-0.5,0.2-0.7,0l-17.1-16.3L120.6,234.7z"/>
														</g>
													</g>
													<g>
														<g>
															<path class="st5" d="M67.8,249.3c0.8,0.1,1.6,0.2,2.4,0.2l-4.2,46.9c0,6.4,69.2,6.4,69.2,0l-2.6-55l0-0.1
																c0,0,14-9.7,15.5-20.9c0,0,0.8,1.3,0,0c-3.8-5.8-15.5-22-34.2-27.5c-3.6-1.1-7.5-1.7-11.6-1.9
																c-5.1-0.1-9.9,0.6-14.4,1.9c-3.6,1.1-7,2.6-10.2,4.3c-21.7,12-32.5,39.2-32.5,39.2s-0.2-0.7,1.9,1.4
																c3.9,3.9,11,9.7,19.6,11.2C67,249.2,67.4,249.3,67.8,249.3z"/>
														</g>
													</g>
												</g>
											</g>
										</g>
									</g>
								</g>
								<g>
									<path class="st5" d="M77.6,197.3C55.3,209.6,44,237.7,44,237.7s-0.2-0.7,2,1.6c4.1,4.1,11.3,10,20.2,11.5
										c0.4,0.1,0.8,0.1,1.2,0.2c0.8,0.1,1.7,0.2,2.5,0.2"/>
								</g>
								<g>
									<path class="st8" d="M70,251.6c-0.1,0-0.1,0-0.2,0c-0.3-0.1-0.4-0.4-0.3-0.6l6.7-20.2c0.1-0.3,0.4-0.4,0.6-0.3
										c0.3,0.1,0.4,0.4,0.3,0.6l-6.7,20.2C70.4,251.5,70.2,251.6,70,251.6z"/>
								</g>
								<g>
									<path class="st8" d="M132.6,241.9c-0.2,0-0.5-0.2-0.5-0.4l-1.9-13.1c0-0.3,0.1-0.5,0.4-0.6c0.3,0,0.5,0.1,0.6,0.4l1.9,13.1
										C133.1,241.6,132.9,241.8,132.6,241.9C132.6,241.9,132.6,241.9,132.6,241.9z"/>
								</g>
								<g>
									<g>
										<path class="st4" d="M92.3,191.8c0,0,5.5,9.2,20,13.1l0.8-12.1c0,0-1.4-6.1-1.8-11.3c-0.4-5.1-12-16.1-12.8-16.8h0
											c0,0,0,0,0,0s-0.4,7.8-2.3,15.7C95,184.5,94.4,188.8,92.3,191.8z"/>
									</g>
									<g>
										<path class="st8" d="M112.3,205.4c0,0-0.1,0-0.1,0c-14.5-3.9-20.1-12.9-20.3-13.3c-0.1-0.2-0.1-0.4,0-0.5
											c1.6-2.4,2.3-5.6,3.1-8.9c0.2-0.8,0.4-1.6,0.6-2.4c1.9-7.7,2.3-15.5,2.3-15.6c0-0.2,0.1-0.4,0.3-0.4
											c0.2-0.1,0.3,0,0.5,0.1c0,0,0,0,0.1,0c0.1,0.1,12.5,11.5,13,17.1c0.4,5.2,1.8,11.2,1.8,11.3c0,0,0,0.1,0,0.1l-0.8,12.1
											c0,0.1-0.1,0.3-0.2,0.4C112.5,205.3,112.4,205.4,112.3,205.4z M92.9,191.8c1,1.5,6.6,8.9,18.9,12.4l0.7-11.4
											c-0.2-0.7-1.4-6.4-1.8-11.3c-0.4-4.2-9.2-13.2-11.9-15.8c-0.2,2.4-0.7,8.6-2.2,14.7c-0.2,0.8-0.4,1.6-0.6,2.4
											C95.2,186.2,94.5,189.3,92.9,191.8z"/>
									</g>
								</g>
								<g>
									<g>
										<path class="st4" d="M97.8,167c0,0-0.4,19.4,15.1,21.1c17.7,1.9,10.9-34,10.9-34l-11.6-9l-13.6,3l-6.2,9.2L97.8,167z"/>
									</g>
									<g>
										<path class="st8" d="M114.1,188.7c-0.4,0-0.9,0-1.4-0.1c-15-1.6-15.5-19.7-15.5-21.5l-5.4-9.6c-0.1-0.2-0.1-0.4,0-0.5
											l6.2-9.2c0.1-0.1,0.2-0.2,0.3-0.2l13.6-3c0.1,0,0.3,0,0.4,0.1l11.6,9c0.1,0.1,0.2,0.2,0.2,0.3c0.2,1,4.4,23.5-3.2,31.7
											C119.2,187.7,116.9,188.7,114.1,188.7z M92.9,157.3l5.3,9.4c0,0.1,0.1,0.2,0.1,0.3c0,0.2-0.2,19,14.6,20.6
											c3.1,0.3,5.6-0.5,7.4-2.5c6.9-7.5,3.4-28.5,3-30.7l-11.2-8.8l-13.2,2.9L92.9,157.3z"/>
									</g>
								</g>
								<g>
									<path class="st8" d="M86.1,161.5c-3.8,3.8,2.2,17.8,9.9,18.9h0c1.9-7.9,2.6-15.7,2.6-15.7s2.4-4.5,2.5-4.5
										c0.1,0,3.4-2,2.8-4.8c-0.6-2.8,0.8-2.2,3-1.9c3.6,0.4,20.9,8.3,24,1.2c6.8-15.5-17.1-17.2-26.4-15.3
										c-9.3,1.9-11.6,4.4-16.4,9.2C86.4,150.3,89.7,157.8,86.1,161.5z"/>
								</g>
								<g>
									<path class="st8" d="M120.6,165.9c0,0.9-0.5,1.7-1.1,1.7c-0.6,0-1.1-0.8-1.1-1.7c0-0.9,0.5-1.7,1.1-1.7
										C120.2,164.2,120.6,164.9,120.6,165.9z"/>
								</g>
								<g>
									<path class="st8" d="M111.3,166.5c0,0.9-0.5,1.7-1.1,1.7c-0.6,0-1.1-0.8-1.1-1.7c0-0.9,0.5-1.7,1.1-1.7
										C110.8,164.8,111.3,165.6,111.3,166.5z"/>
								</g>
								<g>
									<path class="st8" d="M114.5,175.1c-0.1,0-0.3-0.1-0.4-0.2c-0.2-0.2-0.2-0.5,0-0.7l2-1.8c0.3-0.3,0.3-0.4,0.3-0.4
										c0,0-0.2-0.1-0.3-0.2c-0.1-0.1-0.3-0.1-0.4-0.2c-0.8-0.5-0.9-1.5-1-2.1l-0.4-3.8c0-0.3,0.2-0.5,0.4-0.6
										c0.3,0,0.5,0.2,0.6,0.4l0.4,3.8c0.1,0.6,0.2,1.1,0.5,1.3c0.1,0.1,0.2,0.1,0.3,0.1c0.3,0.1,0.7,0.3,0.9,0.8
										c0.2,0.7-0.4,1.2-0.6,1.4l-2,1.8C114.8,175.1,114.7,175.1,114.5,175.1z"/>
								</g>
								<g>
									<path class="st8" d="M112.7,181.5c0,0-0.1,0-0.1,0c-0.9,0-1.7-0.4-2.3-1c-0.2-0.2-0.2-0.5,0-0.7c0.2-0.2,0.5-0.2,0.7,0
										c0.4,0.4,1,0.7,1.6,0.7c0.6,0,1.2-0.2,1.7-0.6c0.2-0.2,0.5-0.2,0.7,0.1c0.2,0.2,0.2,0.5-0.1,0.7
										C114.3,181.2,113.5,181.5,112.7,181.5z"/>
								</g>
							</g>
							<g>
								<path class="st8" d="M103.4,212.8c-0.2,0-0.3,0-0.5-0.1c-1-0.2-1.5-1-2.1-1.8l-6.5-10c-0.1-0.2-0.1-0.5,0.1-0.7
									c0.2-0.1,0.5-0.1,0.7,0.1l6.5,10c0.4,0.6,0.8,1.2,1.4,1.4c0.6,0.1,1.2-0.2,1.8-0.6c1.7-1,6.9-6.6,7-6.6
									c0.2-0.2,0.5-0.2,0.7,0s0.2,0.5,0,0.7c-0.2,0.2-5.4,5.7-7.2,6.8C104.8,212.4,104.1,212.8,103.4,212.8z"/>
							</g>
							<g>
								<path class="st8" d="M118,207.7c-2,0-5.5-2.1-5.9-2.3c-0.2-0.1-0.3-0.4-0.2-0.7c0.1-0.2,0.4-0.3,0.7-0.2
									c1.6,1,4.5,2.4,5.6,2.2c0.5-0.1,0.9-0.2,1.2-0.5c0.3-0.4,0-1.2-0.3-1.8l-2.8-5.7c-0.1-0.2,0-0.5,0.2-0.7
									c0.2-0.1,0.5,0,0.7,0.2l2.8,5.7c0.4,0.9,0.8,2,0.2,2.8c-0.5,0.6-1.3,0.8-1.8,0.9C118.3,207.6,118.1,207.7,118,207.7z"/>
							</g>
						</g>
						<g>
							<g>
								<path class="st9" d="M83.3,428.1v-2.4H69c-0.2,4.6-0.6,13.3-0.7,13.3h23.2C92.4,431.4,83.3,428.1,83.3,428.1z"/>
							</g>
							<g>
								<path class="st8" d="M91.3,435.7c0.3,1,0.4,2.1,0.3,3.3H68.4c0,0,0.1-1.4,0.2-3.3H91.3z"/>
							</g>
						</g>
						<g>
							<g>
								<path class="st9" d="M129.9,428.1v-2.4h-14.3c-0.2,4.6-0.6,13.3-0.7,13.3h23.2C138.9,431.4,129.9,428.1,129.9,428.1z"/>
							</g>
							<g>
								<path class="st8" d="M137.8,435.7c0.3,1,0.4,2.1,0.3,3.3h-23.2c0,0,0.1-1.4,0.2-3.3H137.8z"/>
							</g>
						</g>
						<g>
							<path class="st8" d="M133.4,278.5H116c-2,0-3.4-1.9-3-3.8l7.1-29.3c0.3-1.4,1.6-2.3,3-2.3h17.4c2,0,3.4,1.9,3,3.8l-7.1,29.3
								C136.1,277.5,134.8,278.5,133.4,278.5z"/>
						</g>
						<g>
							<g>
								<path class="st4" d="M67.5,256.7l46.6,3.5c0,0,1.1-6.7,3.7-5.1c2.7,1.6,0,3.9,0,3.9s15.3,0.1,11.3,9.8
									c-4,9.6-18.3,3.8-18.3,3.8s-51.5,15.8-63.4,3"/>
							</g>
							<g>
								<path class="st8" d="M65.5,281c-8,0-14.9-1.4-18.5-5.2c-0.2-0.2-0.2-0.5,0-0.7c0.2-0.2,0.5-0.2,0.7,0
									c11.6,12.4,62.4-3,62.9-3.1c0.1,0,0.2,0,0.3,0c0.1,0.1,13.9,5.5,17.7-3.5c0.9-2.1,0.8-3.8-0.1-5.2
									c-2.5-3.8-10.7-3.9-10.7-3.9c-0.2,0-0.4-0.1-0.5-0.3c-0.1-0.2,0-0.4,0.1-0.6c0.3-0.3,1.1-1.1,1-1.9c0-0.4-0.4-0.8-0.9-1.2
									c-0.4-0.3-0.7-0.2-0.9-0.1c-1.1,0.5-1.9,3.2-2.1,4.8c0,0.3-0.3,0.4-0.5,0.4l-46.6-3.5c-0.3,0-0.5-0.3-0.5-0.5
									c0-0.3,0.3-0.5,0.5-0.5l46.1,3.4c0.2-1.2,1-4.4,2.6-5.1c0.4-0.2,1-0.3,1.8,0.1c0.9,0.5,1.4,1.2,1.4,1.9
									c0.1,0.7-0.3,1.4-0.6,1.9c2.4,0.2,8.3,0.9,10.5,4.3c1.1,1.7,1.2,3.7,0.2,6.1c-3.9,9.4-17.2,4.7-18.8,4.1
									C108.1,273.8,83.9,281,65.5,281z"/>
							</g>
						</g>
					</g>
				</g>
				<g>
					<g>
						<path class="st1" d="M237.7,251c0,8.2-6.7,14.9-14.9,14.9c-8.2,0-14.9-6.7-14.9-14.9c0-8.2,6.7-14.9,14.9-14.9
							C231,236.1,237.7,242.8,237.7,251z"/>
					</g>
					<g>
						<g>
							<rect x="250" y="243.7" class="st1" width="112.5" height="4.4"/>
						</g>
						<g>
							<rect x="250" y="253.9" class="st1" width="33" height="4.4"/>
						</g>
					</g>
				</g>
				<g>
					<g>
						<path class="st1" d="M237.7,285.7c0,8.2-6.7,14.9-14.9,14.9c-8.2,0-14.9-6.7-14.9-14.9c0-8.2,6.7-14.9,14.9-14.9
							C231,270.7,237.7,277.4,237.7,285.7z"/>
					</g>
					<g>
						<g>
							<rect x="250" y="278.4" class="st1" width="112.5" height="4.4"/>
						</g>
						<g>
							<rect x="250" y="288.5" class="st1" width="33" height="4.4"/>
						</g>
					</g>
				</g>
				<g>
					<g>
						<path class="st9" d="M177.1,117.3c0,11.4-9.2,20.6-20.6,20.6c-11.4,0-20.6-9.2-20.6-20.6c0-11.4,9.2-20.6,20.6-20.6
							C167.9,96.7,177.1,105.9,177.1,117.3z"/>
					</g>
					<g>
						<path class="st4" d="M164.5,119.4l-9,5.8c-1.7,1.1-3.9-0.1-3.9-2.1l0-11.6c0-2,2.2-3.2,3.9-2.1l9,5.8
							C166.1,116.1,166.1,118.4,164.5,119.4z"/>
					</g>
				</g>
			</g>
			<g>
				<g>
					<path class="st5" d="M340.2,396.3c-4.2,1.5-11.6,2-16.1-7.8c-4.5-9.8,0.9-27-7-34.7c0,0,9.3,0.2,17.7,8.4
						C343.1,370.5,353.7,391.6,340.2,396.3z"/>
				</g>
				<g>
					<g>
						<path class="st5" d="M365.6,373.5c-0.1,0.2-0.1,0.5-0.2,0.7c-2,7.7-6.5,13.3-14.7,12.3c-5.8-0.7-14.7-4.3-14.4-18.3
							c0.1-3,0.9-6.2,2.1-9.4c0.1-0.2,0.2-0.5,0.2-0.7c4.4-11.6,13.1-24,9.4-34.4c0.3,0.2,10.8,5.8,15.8,19.9c0,0,0,0,0,0
							c0.1,0.2,0.1,0.4,0.2,0.7C366.7,352.1,367.9,364.2,365.6,373.5z"/>
					</g>
				</g>
				<g>
					<rect x="350.6" y="364.7" class="st8" width="1" height="46.8"/>
				</g>
				<g>
					<path class="st5" d="M386.5,353.9c-3.5,3.4-4.4,8.6-4.7,14.2c0,0.3,0,0.5,0,0.8c-0.3,6.9,0.1,14.4-2.3,19.7
						c-0.4,0.8-0.8,1.6-1.2,2.3c-0.1,0.2-0.3,0.4-0.4,0.6c-4.5,6.7-10.8,6.2-14.5,4.9c-9.7-3.4-6.9-15.3-1.5-24.8
						c0.1-0.2,0.2-0.4,0.3-0.6c2-3.4,4.4-6.5,6.6-8.7C377.2,354.1,386.5,353.9,386.5,353.9z"/>
				</g>
				<g>
					
						<rect x="344.5" y="396.9" transform="matrix(0.4417 -0.8971 0.8971 0.4417 -154.1109 547.0724)" class="st8" width="36" height="1"/>
				</g>
				<g>
					
						<rect x="340.5" y="379.4" transform="matrix(0.8971 -0.4419 0.4419 0.8971 -140.4879 191.5551)" class="st8" width="1" height="36"/>
				</g>
				<g>
					<g>
						<path class="st4" d="M381.8,368.1c0,0.3,0,0.5,0,0.8l-3.4,1.8l-0.3-0.6L381.8,368.1z"/>
					</g>
				</g>
				<g>
					<g>
						<path class="st4" d="M378.2,390.9c-0.1,0.2-0.3,0.4-0.4,0.6l-1.5-1.8l0.5-0.4L378.2,390.9z"/>
					</g>
				</g>
				<g>
					<g>
						<path class="st4" d="M365.6,373.5c-0.1,0.2-0.1,0.5-0.2,0.7c-0.7-0.5-1.8-1.2-3.6-2.7c0.1-0.2,0.2-0.4,0.3-0.6
							C363.5,372,364.8,372.9,365.6,373.5z"/>
					</g>
				</g>
				<g>
					<path class="st4" d="M360.1,439l-14.5,0c-0.9,0-1.6-0.6-1.8-1.5l-5.9-25.3c-0.2-1.1,0.7-2.1,1.8-2.1l26.4,0.1
						c1.1,0,1.9,1,1.8,2.1l-6,25.2C361.7,438.4,360.9,439,360.1,439z"/>
				</g>
				<g>
					<path class="st8" d="M360.1,439.5C360.1,439.5,360.1,439.5,360.1,439.5l-14.5,0c-1.1,0-2.1-0.8-2.3-1.9l-5.8-25.2
						c-0.2-1.5,0.9-2.7,2.3-2.7c0,0,0,0,0,0l26.4,0.1c1.4,0,2.5,1.3,2.3,2.7l-6,25.3C362.1,438.7,361.2,439.5,360.1,439.5z
						 M339.7,410.6c-0.8,0-1.4,0.7-1.3,1.5l5.8,25.2c0.1,0.7,0.6,1.1,1.3,1.1l14.5,0c0,0,0,0,0,0c0.6,0,1.2-0.5,1.3-1.1l6-25.3
						c0.1-0.7-0.5-1.5-1.3-1.5L339.7,410.6C339.7,410.6,339.7,410.6,339.7,410.6z"/>
				</g>
			</g>
		</g>
		<g>
			<g>
				<path class="st11" d="M264.6,371.3h-34.1c-0.2,0-0.4-0.2-0.4-0.4s0.2-0.4,0.4-0.4h34.1c0.2,0,0.4,0.2,0.4,0.4
					S264.8,371.3,264.6,371.3z"/>
			</g>
			<g>
				<path class="st11" d="M264.6,388.2h-34.1c-0.2,0-0.4-0.2-0.4-0.4s0.2-0.4,0.4-0.4h34.1c0.2,0,0.4,0.2,0.4,0.4
					S264.8,388.2,264.6,388.2z"/>
			</g>
			<g>
				<path class="st11" d="M258.4,379.8h-48.2c-0.2,0-0.4-0.2-0.4-0.4s0.2-0.4,0.4-0.4h48.2c0.2,0,0.4,0.2,0.4,0.4
					S258.6,379.8,258.4,379.8z"/>
			</g>
			<g>
				<path class="st11" d="M237.5,371.3c-0.2,0-0.4-0.2-0.4-0.4v-7.2c0-0.2,0.2-0.4,0.4-0.4s0.4,0.2,0.4,0.4v7.2
					C237.9,371.2,237.7,371.3,237.5,371.3z"/>
			</g>
			<g>
				<path class="st11" d="M249.5,379.8c-0.2,0-0.4-0.2-0.4-0.4v-8.5c0-0.2,0.2-0.4,0.4-0.4s0.4,0.2,0.4,0.4v8.5
					C249.9,379.6,249.7,379.8,249.5,379.8z"/>
			</g>
			<g>
				<path class="st11" d="M240.4,387.9c-0.2,0-0.4-0.2-0.4-0.4v-8.2c0-0.2,0.2-0.4,0.4-0.4s0.4,0.2,0.4,0.4v8.2
					C240.7,387.8,240.6,387.9,240.4,387.9z"/>
			</g>
		</g>
		<g>
			<g>
				<path class="st11" d="M448.4,291h-34.1c-0.2,0-0.4-0.2-0.4-0.4s0.2-0.4,0.4-0.4h34.1c0.2,0,0.4,0.2,0.4,0.4S448.6,291,448.4,291
					z"/>
			</g>
			<g>
				<path class="st11" d="M448.4,307.9h-34.1c-0.2,0-0.4-0.2-0.4-0.4s0.2-0.4,0.4-0.4h34.1c0.2,0,0.4,0.2,0.4,0.4
					S448.6,307.9,448.4,307.9z"/>
			</g>
			<g>
				<path class="st11" d="M442.2,299.4H394c-0.2,0-0.4-0.2-0.4-0.4s0.2-0.4,0.4-0.4h48.2c0.2,0,0.4,0.2,0.4,0.4
					S442.4,299.4,442.2,299.4z"/>
			</g>
			<g>
				<path class="st11" d="M421.3,291c-0.2,0-0.4-0.2-0.4-0.4v-7.2c0-0.2,0.2-0.4,0.4-0.4s0.4,0.2,0.4,0.4v7.2
					C421.7,290.8,421.6,291,421.3,291z"/>
			</g>
			<g>
				<path class="st11" d="M433.3,299.4c-0.2,0-0.4-0.2-0.4-0.4v-8.5c0-0.2,0.2-0.4,0.4-0.4s0.4,0.2,0.4,0.4v8.5
					C433.7,299.3,433.5,299.4,433.3,299.4z"/>
			</g>
			<g>
				<path class="st11" d="M424.2,307.6c-0.2,0-0.4-0.2-0.4-0.4v-8.2c0-0.2,0.2-0.4,0.4-0.4s0.4,0.2,0.4,0.4v8.2
					C424.6,307.4,424.4,307.6,424.2,307.6z"/>
			</g>
		</g>
		<g>
			<g>
				<path class="st11" d="M381.5,75.6h-34.1c-0.2,0-0.4-0.2-0.4-0.4s0.2-0.4,0.4-0.4h34.1c0.2,0,0.4,0.2,0.4,0.4
					S381.7,75.6,381.5,75.6z"/>
			</g>
			<g>
				<path class="st11" d="M381.5,92.5h-34.1c-0.2,0-0.4-0.2-0.4-0.4s0.2-0.4,0.4-0.4h34.1c0.2,0,0.4,0.2,0.4,0.4
					S381.7,92.5,381.5,92.5z"/>
			</g>
			<g>
				<path class="st11" d="M375.3,84H327c-0.2,0-0.4-0.2-0.4-0.4s0.2-0.4,0.4-0.4h48.2c0.2,0,0.4,0.2,0.4,0.4S375.5,84,375.3,84z"/>
			</g>
			<g>
				<path class="st11" d="M354.4,75.6c-0.2,0-0.4-0.2-0.4-0.4V68c0-0.2,0.2-0.4,0.4-0.4s0.4,0.2,0.4,0.4v7.2
					C354.8,75.4,354.6,75.6,354.4,75.6z"/>
			</g>
			<g>
				<path class="st11" d="M366.4,84c-0.2,0-0.4-0.2-0.4-0.4v-8.5c0-0.2,0.2-0.4,0.4-0.4s0.4,0.2,0.4,0.4v8.5
					C366.8,83.8,366.6,84,366.4,84z"/>
			</g>
			<g>
				<path class="st11" d="M357.3,92.2c-0.2,0-0.4-0.2-0.4-0.4v-8.2c0-0.2,0.2-0.4,0.4-0.4s0.4,0.2,0.4,0.4v8.2
					C357.6,92,357.5,92.2,357.3,92.2z"/>
			</g>
		</g>
	</g>
</g>
</svg>
